<svg id="Livello_2" data-name="Livello 2" xmlns="http://www.w3.org/2000/svg" viewBox="0 0 504.88 538.98"><defs><style>.cls-1{fill:#070402;}.cls-2{fill:#fd7e54;}.cls-3{fill:#758d86;}.cls-4{fill:#040505;}</style></defs><path class="cls-1" d="M654.08,423.36c-1.18,18.65-3.36,37-14.69,52.86-2,2.84-3.25,7.54-7.53,4.12-3.62-2.89-.34-6.14,1.43-9.27,4.93-8.67,9.85-17.24,10.46-27.8.39-6.64,1.36-13.25,1.34-20a50,50,0,0,0-3.18-17.55c-5-12.76-8.18-26.55-18.29-37.11-5.1-5.33-8.32-12.4-14.21-17.28-2.72-2.27-5.16-4.81-8.84-5.56a3.46,3.46,0,0,1-2.09-1.49c-4-7.07-11.38-8.46-18.15-10.87-.83-.3-2.05-.29-2.45-.87-4.34-6.15-11.5-5.29-17.54-7.06-4.48-1.31-4.91-5.19-6.29-8.5-.52-1.28-.84-3,.94-3.67,3.07-1.14,5.38-4.43,9.65-2a43.72,43.72,0,0,0,18.58,6.09c4.86.42,10.45,5,13.85,10.21.76,1.15,1.77,2.79,2.86,3,12.4,1.92,17.09,13,24.78,20.5s13.15,17,18.51,26.2c6.48,11.19,8.46,23.92,10.28,36.55C654,417,653.9,420.2,654.08,423.36Z" transform="translate(-293.23 -209.77)"/><path class="cls-2" d="M528.3,403.8c-5.77-8.73-13.8-15.85-19.16-24.72-8.9-14.72-18.71-29.27-20.42-47.18-.33-3.42-2.8-6-3.29-9.46-2-13.77-.14-27,3.7-40.32a129.12,129.12,0,0,1,8.22-20.39c9.81-20.37,26.63-31.88,47-39.4,4.32-1.59,8.61-3.26,12.82-5.12s8.07-3.65,12.73-2.91c3.64.57,5.85-2.79,9.32-3.35,8.48-1.36,16.89-1.18,25.43-1.17,8.13,0,16.23,1.09,24.39.49,3.78-.27,7.52,2.21,10.61,3.72,9.09,4.44,18.69,6.87,28.22,9.69,3.69,1.09,5.88,4.61,9.61,5.39a55.24,55.24,0,0,1,18.11,7.42c6.78,4.4,13.33,9.28,20.55,13.13,4,2.15,4.4,7.34,8.17,10,2.46,1.72,4.62,3.78,7.55,4.81a12.87,12.87,0,0,1,7.92,7.35c2.29,5.24,7.57,8.15,11.63,11.38,9,7.16,12.39,17.08,16.73,26.71,1.12,2.49,4,5.57,4,6.53.26,6.8,7.77,10.39,7,17.42-.57,5,.7,9.51,4.74,13,.75.64,1.72,1.93,1.53,2.61-1.56,5.51,2.14,10.28,3.84,14.32,5.6,13.35,7.81,27.5,8.28,41.21.4,11.25,2.1,23.41-3.64,34.84a105.12,105.12,0,0,0-6.52,15.9,2.94,2.94,0,0,1-.85,1.34c-10,8.06-17.15,19-27.71,26.83-8.92,6.62-18,12.51-28.24,16.21-9.12,3.31-18.67,5.53-28.76,4.82-7.75-.54-15.68.09-23.08-2.49-6.26-2.18-13.19.35-19.21-3.79-3-2.05-7.19.1-11.15-1.78-8.24-3.92-15.15-9.57-22.51-14.65-6.49-4.48-13.29-8.19-21.22-9.44-2.14-.33-3.34.74-4.32,2.36-4.57,7.55-8.82,15.31-13.78,22.59-4.48,6.59-9.06,13.1-13.14,19.94-9.91,16.64-20.6,32.82-28.51,50.61-1.69,3.81-3.93,7.32-5,11.48-.89,3.58-3.9,4.25-7.2,4a7.23,7.23,0,0,1-2.66-5,185.07,185.07,0,0,1,4.49-20.85c.69-2.74.6-5.78,1.76-8.26,5.38-11.42,8.72-23.58,11.7-35.65,3.05-12.33,7.6-24.21,9.8-36.84,1.68-9.62,6.31-18.72,9.54-28.07.61-1.77.92-3.23-1-5.08-10.31-10.11-20.47-20.4-29.23-31.94C534.94,408.41,531.6,406.12,528.3,403.8Zm125.78,19.56c-.18-3.16-.13-6.36-.58-9.48-1.82-12.63-3.8-25.36-10.28-36.55-5.36-9.23-10.72-18.59-18.51-26.2s-12.38-18.58-24.78-20.5c-1.09-.17-2.1-1.81-2.86-3-3.4-5.17-9-9.79-13.85-10.21a43.72,43.72,0,0,1-18.58-6.09c-4.27-2.45-6.58.84-9.65,2-1.78.67-1.46,2.39-.94,3.67,1.38,3.31,1.81,7.19,6.29,8.5,6,1.77,13.2.91,17.54,7.06.4.58,1.62.57,2.45.87,6.77,2.41,14.14,3.8,18.15,10.87a3.46,3.46,0,0,0,2.09,1.49c3.68.75,6.12,3.29,8.84,5.56,5.89,4.88,9.11,11.95,14.21,17.28,10.11,10.56,13.27,24.35,18.29,37.11a50,50,0,0,1,3.18,17.55c0,6.71-1,13.32-1.34,20-.61,10.56-5.53,19.13-10.46,27.8-1.77,3.13-5,6.38-1.43,9.27,4.28,3.42,5.51-1.28,7.53-4.12C650.72,460.35,652.9,442,654.08,423.36Zm-41.49-13.55a9.07,9.07,0,0,0-.61-3.27,80.54,80.54,0,0,0-17.56-22.84c-4.77-4.32-11-6.2-15.69-10.28a38.82,38.82,0,0,0-9.75-6c-2.21-1-4.56-1.39-5.62,1.77-.94,2.8-2,6.33,1.4,7.47,7.86,2.68,13.68,8.32,20.14,12.93,5.68,4.05,10.6,9.21,15.68,14.07,1.68,1.6,2,4.08,2.52,6.34.63,2.6-.23,3.31-2.61,2.57-5.21-1.64-10.52-2.88-15.27-5.92-6.85-4.38-14-8.32-21-12.52-1.35-.81-2.77-1.31-3.83-.08s-.63,2.7.44,3.86c.72.79,1.64,1.39,2.3,2.22,5.08,6.29,12.6,9,19.11,13.17,5.45,3.51,11.1,6.31,17.45,7.47C606.45,422,612.37,417.27,612.59,409.81Z" transform="translate(-293.23 -209.77)"/><path class="cls-3" d="M530.1,578.59a7.23,7.23,0,0,0,2.66,5c5.12,5.87,4.79,14,8.42,20.45,2.4,4.3.47,8.63-.47,12.8-.47,2.1-.93,3.8.91,5.17,3.17,2.37,3.55,4.69,1,8-1.17,1.49-1.13,4-1.63,6-1.94-3.37-3.81-6.78-5.83-10.1-2.33-3.82-5.39-4.27-9-1.65a9.73,9.73,0,0,0-4.22,7.65c-.23,4.16-.46,8.31-.7,12.7-1.72-.58-2-2.08-2.87-3.14-2.09-2.65-3.38-6.65-8.1-5.37-4.38,1.18-5.23,4.6-5.92,8.52s.85,8-.85,12.06c-2.39-1.73-3.37-3.91-4.6-6.07-2.27-4-5.89-7-10.6-6.92-5,.08-8,3.71-9.38,8.24a77.72,77.72,0,0,0-1.94,9.88c-1.19,6.93.09,13.74,1,20.58.36,2.85-.06,4.88-4,4-9.86-2.22-17.37-8.56-25.2-14.23-2.79-2-4.53-5.43-7.07-7.87a80.5,80.5,0,0,1-18.38-27.5,248.52,248.52,0,0,1-12.56-38.32c-2-8.58-4.81-17-7.32-25.45-3.32-11.2-8.42-14.19,9.09-17.48,7.19-1.35,6.93-2.49,9,5.76,3.26,13.13,7,26,14.91,37.34,2.81,4,6.23,7.67,11.21,6.43s7.83-5.15,8.17-10.65c.19-3.1.95-6.17,1.53-9.77,2.53,1.71,3.16,4,4.43,5.81,2.77,4,6.29,5.94,11.34,4.93,4.58-.92,6.32-4,7.36-8.06.84-3.35,2.1-6.6,3.3-10.29,2.65,2.53,4.71,4.51,6,7.41,2.37,5.49,9.08,10.14,13.24,8.74,5.26-1.76,6.76-6.46,7.64-11.67a159.69,159.69,0,0,0,2.36-21.68c0-1-.09-2.55.52-3.08,3.2-2.75,1.54-4.72-.11-7.61-1.76-3.08-2.76-4.46-7-4.24a62.1,62.1,0,0,1-12.55-.73c-14.77-2.31-29.69-1.15-44.52-1.82-13.76-.62-27.37,2.76-40.92,5.52-4.91,1-8.89,3.33-13,5.69-2.19,1.24-2.34,3-2.29,5.37.21,9.42,4.51,17.83,6.15,26.84,2.24,12.24,6.75,23.8,10.18,35.65A127.19,127.19,0,0,0,424.14,655c5.58,8.71,11.66,16.93,18.95,23.83,9.76,9.23,20.91,16.88,35.27,17.86,8.86.6,17.55,2,26.57.28,6.42-1.25,12.25-4.64,18.91-4.67.53,3.35-.07,6.26-2.69,8.73a7.37,7.37,0,0,0-2.29,4.09c-.33,3-1.62,4.16-4.63,4.68a8,8,0,0,0-6,4.7c-2.45,5.29-6.94,8.27-12.18,10.47-3.66,1.53-7.45,2.83-8.81,7.57-.79,2.74-4.22,3-6.8,3.46-3.07.52-5.85,1.27-7.78,4a3.69,3.69,0,0,1-3.2,1.64c-4.54-.17-8.84.27-11.75,4.46a1.68,1.68,0,0,1-1.4.65c-5.45-1.53-10.37,2.26-16,1.28-4.31-.76-9,.12-13.43.69-2.89.36-6-1-8.17-.51-6,1.42-9.62-2.43-14.29-4.15-3.42-1.26-7.39,1.71-11.19-.63-2.85-1.75-3.26-5.95-7-6.58-7-1.18-13.15-5.55-20.5-5.12-.94,0-1.92.18-2.42-.6-4.27-6.63-13.38-7.32-17.46-14.82-1.46-2.68-6.37-4.45-8.18-7.87-2.78-5.25-9.82-7.15-10-14.87-.08-3.42-5.05-6.76-8-9.86-2.57-2.72-3.71-5.56-2.77-8.54,1.22-3.85-.44-6.11-2.84-8.26-2.87-2.55-3.7-5.55-3.94-9.38-.29-4.4-.95-9.23-5.85-11.62a1.55,1.55,0,0,1-.94-2.15c2.47-6.08-1-11.35-2.3-16.93-.48-2.09-.73-4-3.1-5.15s-1.49-3.39-1.39-5.26,1.33-4.16.59-5.07c-5.09-6.23-1.12-13.94-3.73-20.51-1-2.49,1.46-4.78,1.06-7.24-1.33-8.31,2.9-16.5.46-24.84a4.78,4.78,0,0,1,.44-2.54c5.31-15.84,10.18-31.94,18.33-46.56a155.18,155.18,0,0,1,20-28,101.86,101.86,0,0,1,17.18-15.92,4.93,4.93,0,0,0,2.18-3.53,5.32,5.32,0,0,1,.86-2.28c7,1.22,10.05-7.31,16.69-6.77,2.75.23,4.57-.44,5.46-3.44.72-2.38,3.09-4.33,5.34-3.37,5.06,2.16,9.49-1.12,14.36-1,6.25.13,12.51,1.06,18.9.51,6.55-.55,13,2.5,19.43,4.2,7.67,2,14.08,6.87,21.92,8.15,3.73.61,5.7,4.26,8,6.64,2.56,2.67,4.84,6.13,7.68,8.34,4.35,3.4,7.6,7.69,11.57,11.32,2.84,2.6,5.31.38,6.55-2.58,2.79-6.69,5.82-13.33,7.95-20.24a93.63,93.63,0,0,1,7.35-17.92c7.45-13.45,14.38-27.19,23.15-39.88,3.3,2.32,6.64,4.61,8.88,8.1-3,3.65-.88,8.2-2.22,12.31-3.24,10-5.72,20.22-8.39,30.39-.88,3.38-1.19,6.91-2.14,10.27-1.9,6.7-4.4,13.49-4.07,20.36.36,7.81-.81,15.51-1,23.23-.12,5.33-1.39,11-2,16.59-.61,5.15.68,10.5-1.65,15.49-.73,1.57.59,3,1.24,4.45,3.62,8,6.51,16.22,7.08,25.1C524.26,574.15,526.15,577.13,530.1,578.59Zm-65.89-67.73c-.22-1.58-.3-2.83-.59-4-2.23-9.18-6.71-17.43-10.9-25.77a75.08,75.08,0,0,0-6.6-10.31c-1.85-2.55-4.91-3.73-7.48-1.93-2.83,2-1.4,5.09.49,7,5.43,5.43,7.81,12.63,11.51,19,3.41,5.92,3.58,12.93,4.91,19.5a5.75,5.75,0,0,1-2.86,6.41c-2.52,1.23-3.91-1.16-5.29-2.58-8.12-8.3-14.29-18-19.6-28.26-.78-1.51-1-3.91-3.38-3.32-2.59.63-2.34,3.07-1.64,4.85,5.06,12.92,11.67,24.88,22,34.5,3.18,3,7.33,2.84,10.9,2.59s7.53-3,7.71-7C463.51,517.84,463.46,514.17,464.21,510.86Z" transform="translate(-293.23 -209.77)"/><path class="cls-4" d="M523.84,692.31c-6.66,0-12.49,3.42-18.91,4.67-9,1.76-17.71.32-26.57-.28-14.36-1-25.51-8.63-35.27-17.86-7.29-6.9-13.37-15.12-18.95-23.83a127.19,127.19,0,0,1-14.75-33.63c-3.43-11.85-7.94-23.41-10.18-35.65-1.64-9-5.94-17.42-6.15-26.84-.05-2.38.1-4.13,2.29-5.37,4.15-2.36,8.13-4.69,13-5.69,13.55-2.76,27.16-6.14,40.92-5.52,14.83.67,29.75-.49,44.52,1.82a62.1,62.1,0,0,0,12.55.73c4.19-.22,5.19,1.16,7,4.24,1.65,2.89,3.31,4.86.11,7.61-.61.53-.49,2-.52,3.08a159.69,159.69,0,0,1-2.36,21.68c-.88,5.21-2.38,9.91-7.64,11.67-4.16,1.4-10.87-3.25-13.24-8.74-1.25-2.9-3.31-4.88-6-7.41-1.2,3.69-2.46,6.94-3.3,10.29-1,4.08-2.78,7.14-7.36,8.06-5.05,1-8.57-1-11.34-4.93-1.27-1.8-1.9-4.1-4.43-5.81-.58,3.6-1.34,6.67-1.53,9.77-.34,5.5-3.33,9.44-8.17,10.65s-8.4-2.39-11.21-6.43c-7.86-11.32-11.65-24.21-14.91-37.34-2-8.25-1.78-7.11-9-5.76-17.51,3.29-12.41,6.28-9.09,17.48,2.51,8.47,5.3,16.87,7.32,25.45a248.52,248.52,0,0,0,12.56,38.32,80.5,80.5,0,0,0,18.38,27.5c2.54,2.44,4.28,5.86,7.07,7.87,7.83,5.67,15.34,12,25.2,14.23,3.95.89,4.37-1.14,4-4-.88-6.84-2.16-13.65-1-20.58a77.72,77.72,0,0,1,1.94-9.88c1.41-4.53,4.37-8.16,9.38-8.24,4.71-.07,8.33,2.91,10.6,6.92,1.23,2.16,2.21,4.34,4.6,6.07,1.7-4.06.15-8.15.85-12.06s1.54-7.34,5.92-8.52c4.72-1.28,6,2.72,8.1,5.37.84,1.06,1.15,2.56,2.87,3.14.24-4.39.47-8.54.7-12.7a9.73,9.73,0,0,1,4.22-7.65c3.57-2.62,6.63-2.17,9,1.65,2,3.32,3.89,6.73,5.83,10.1.13,1.07.27,2.14.41,3.2-3.16-1.26-4.62-4.33-7-6.45-1.49-1.34-2.67-4.25-4.92-3.25s-2.37,3.94-2,6.19c1.2,8.08-.17,16.35,1.91,24.37.69,2.69.62,5.74-2.69,6.61-3.71,1-3.66-2.69-4.38-4.73-2-5.56-4.84-10.64-7.6-15.78-.72-1.35-1.37-3.41-3.21-3.12-2.12.33-1.29,2.53-1.53,4a37.35,37.35,0,0,0,.53,13.15,120.09,120.09,0,0,1,1.44,17.5c.07,2.13.34,5.29-2.48,5.88-3.31.68-3.75-2.72-4.68-4.83-3-6.76-5.8-13.62-8.71-20.43a17.13,17.13,0,0,0-4-5.59c-3.24-3.15-6.17-2.79-7.48,1.36-2.87,9.14-2.72,18.55-1.72,28,.42,4,3,5.27,6.71,5.12,6.87-.28,14,1.3,20.56-.9s13.81-3.63,17.77-11.19c2.72-5.22,5.11-11.22,10.82-14.43.26,9.12-1,17.67-8.27,24.31A91.08,91.08,0,0,0,523.84,692.31ZM441.65,551.52c-4.72.56-9.45,1-14.15,1.72-1.53.22-3.23.65-2.65,3,3.34,13.59,7.33,26.94,15.8,38.39,1.56,2.11,2.71,6,6.06,4.94,2.89-.92,2.93-4.76,3.18-7.39a167.83,167.83,0,0,0-.5-32.32C448.93,555.3,450.69,548.36,441.65,551.52Zm37.84-.54c-7-2.06-14,1.73-21.09-.37-2.36-.71-3.15,1.39-2.92,3.77,1,10.35,4.24,20,8.43,29.46,1.35,3,3.92,5.91,7.16,5.46s4.94-3.92,5.58-7.12a65.21,65.21,0,0,0,1.5-14.2C478.05,562.28,476.76,556.36,479.49,551Zm4.26,0a149.62,149.62,0,0,0,7.5,21.33,42.34,42.34,0,0,0,8.25,12.84c1.13,1.2,2.56,2.83,3.1-.36,1.66-9.82,2.84-19.68,1.94-29.67-.15-1.59-.63-3.46-2.67-3.42C495.88,551.86,490,549.3,483.75,551Z" transform="translate(-293.23 -209.77)"/><path class="cls-3" d="M538.7,660.6c-5.71,3.21-8.1,9.21-10.82,14.43-4,7.56-11.12,9-17.77,11.19s-13.69.62-20.56.9c-3.75.15-6.29-1.14-6.71-5.12-1-9.41-1.15-18.82,1.72-28,1.31-4.15,4.24-4.51,7.48-1.36a17.13,17.13,0,0,1,4,5.59c2.91,6.81,5.69,13.67,8.71,20.43.93,2.11,1.37,5.51,4.68,4.83,2.82-.59,2.55-3.75,2.48-5.88a120.09,120.09,0,0,0-1.44-17.5,37.35,37.35,0,0,1-.53-13.15c.24-1.46-.59-3.66,1.53-4,1.84-.29,2.49,1.77,3.21,3.12,2.76,5.14,5.63,10.22,7.6,15.78.72,2,.67,5.71,4.38,4.73,3.31-.87,3.38-3.92,2.69-6.61-2.08-8-.71-16.29-1.91-24.37-.34-2.25-.15-5.22,2-6.19s3.43,1.91,4.92,3.25c2.35,2.12,3.81,5.19,7,6.45,1.54,1.88,2,3.7-.41,5.25-1.86,1.21-2.67,3-1.93,5C540.48,653.25,539.61,656.89,538.7,660.6Z" transform="translate(-293.23 -209.77)"/><path class="cls-1" d="M612.59,409.81c-.22,7.46-6.14,12.2-12.88,11-6.35-1.16-12-4-17.45-7.47-6.51-4.2-14-6.88-19.11-13.17-.66-.83-1.58-1.43-2.3-2.22-1.07-1.16-1.45-2.69-.44-3.86s2.48-.73,3.83.08c7,4.2,14.13,8.14,21,12.52,4.75,3,10.06,4.28,15.27,5.92,2.38.74,3.24,0,2.61-2.57-.56-2.26-.84-4.74-2.52-6.34-5.08-4.86-10-10-15.68-14.07-6.46-4.61-12.28-10.25-20.14-12.93-3.35-1.14-2.34-4.67-1.4-7.47,1.06-3.16,3.41-2.79,5.62-1.77a38.82,38.82,0,0,1,9.75,6c4.64,4.08,10.92,6,15.69,10.28A80.54,80.54,0,0,1,612,406.54,9.07,9.07,0,0,1,612.59,409.81Z" transform="translate(-293.23 -209.77)"/><path class="cls-4" d="M464.21,510.86c-.75,3.31-.7,7-.86,10.65-.18,4-4,6.77-7.71,7s-7.72.38-10.9-2.59c-10.29-9.62-16.9-21.58-22-34.5-.7-1.78-.95-4.22,1.64-4.85,2.38-.59,2.6,1.81,3.38,3.32,5.31,10.27,11.48,20,19.6,28.26,1.38,1.42,2.77,3.81,5.29,2.58a5.75,5.75,0,0,0,2.86-6.41c-1.33-6.57-1.5-13.58-4.91-19.5-3.7-6.41-6.08-13.61-11.51-19-1.89-1.89-3.32-5-.49-7,2.57-1.8,5.63-.62,7.48,1.93a75.08,75.08,0,0,1,6.6,10.31c4.19,8.34,8.67,16.59,10.9,25.77C463.91,508,464,509.28,464.21,510.86Z" transform="translate(-293.23 -209.77)"/><path class="cls-3" d="M441.65,551.52c9-3.16,7.28,3.78,7.74,8.38a167.83,167.83,0,0,1,.5,32.32c-.25,2.63-.29,6.47-3.18,7.39-3.35,1.06-4.5-2.83-6.06-4.94-8.47-11.45-12.46-24.8-15.8-38.39-.58-2.39,1.12-2.82,2.65-3C432.2,552.56,436.93,552.08,441.65,551.52Z" transform="translate(-293.23 -209.77)"/><path class="cls-3" d="M479.49,551c-2.73,5.38-1.44,11.3-1.34,17a65.21,65.21,0,0,1-1.5,14.2c-.64,3.2-2.37,6.68-5.58,7.12s-5.81-2.42-7.16-5.46c-4.19-9.41-7.43-19.11-8.43-29.46-.23-2.38.56-4.48,2.92-3.77C465.46,552.71,472.46,548.92,479.49,551Z" transform="translate(-293.23 -209.77)"/><path class="cls-3" d="M483.75,551c6.27-1.7,12.13.86,18.12.72,2,0,2.52,1.83,2.67,3.42.9,10-.28,19.85-1.94,29.67-.54,3.19-2,1.56-3.1.36a42.34,42.34,0,0,1-8.25-12.84A149.62,149.62,0,0,1,483.75,551Z" transform="translate(-293.23 -209.77)"/></svg>