<svg id="Livello_1" data-name="Livello 1" xmlns="http://www.w3.org/2000/svg" viewBox="0 0 1097.96 303.95"><defs><style>.cls-1{fill:#fd7e54;}.cls-2{fill:#768d86;}.cls-3{fill:#0f0805;}.cls-4{fill:#080909;}.cls-5{font-size:272.11px;font-family:NewYork;}.cls-6{letter-spacing:-0.01em;}.cls-7{letter-spacing:0em;}.cls-8{letter-spacing:-0.06em;}</style></defs><path class="cls-1" d="M737,474.81c-2.67.86-5.36,0-8,.07-2.46.24-5-.5-7.41.43-4,.83-6.37-1.22-8-4.67-3.31-7.14-7.08-14.07-10.64-21.09-1.5-3-3-6-4.53-8.93.79-2.51-.32-4.9-1.16-7a61.21,61.21,0,0,0-4.82-9.17c-1.2-1.93-1-4.33-2.21-5.84a34,34,0,0,1-4.29-7.95c-1-2.33-1.65-4.94-3-7-3.73-5.65-6.21-12-10-17.55-1.37-2-1.59-5.08-4.74-5.6-1.14-2.08-2.25-4.18-3.43-6.25-5.9-10.39-10.7-21.38-16.82-31.66a19.49,19.49,0,0,0-3.07-6.47c-2.6-3.58-4-7.79-6.26-11.55-2.79-4.59-4.73-9.7-7.13-14.54-1.25-2.51-3.1-4.79-3.94-7.42a65.33,65.33,0,0,0-3.44-8.11c-1.65-3.49-4.13-6.6-4.83-10.53,1.16-1.24,2.08-2.72,3.6-3.59,2.63-.21,5.31.48,7.91-.42,2.47-.71,4.93-1.33,7.54-.58a4.58,4.58,0,0,0,2.46.07c5.42-1.6,11-.54,16.36-.33,5.08.21,10.14-.44,15.26-.06,3.13.24,6.59,1.25,10.08-.18,1.56-.65,4.38.48,5.71,2.65,5.81,9.46,10.46,19.57,16.14,29.09,5.2,8.73,9.51,17.94,15,26.51,3.33,5.21,5.82,10.95,9,16.29,2.67,4.57,5.75,8.9,8.6,13.35.94,1.47,1.76,3,2.64,4.52s.66,2.86-1,3.41c-1.51.48-1.26,1.07-.65,2.08,4.23,7,7.84,14.4,12.55,21.16a61.63,61.63,0,0,1,4,7.27,45.9,45.9,0,0,0,4.15,6.9c2.1,2.75,3.12,6,4.92,8.81A160.9,160.9,0,0,1,772,436.09c2.65,5.43,5.83,10.55,8.64,15.89,1.48,2.82,3.91,5.23,5,8s3.43,5.41,4,8.55a2.54,2.54,0,0,1-2.09,2.75c-2.53.54-4.75,1.87-7.1,2.62-2,.64-4.59,1.15-6.93.24-1-.37-2.12-.65-2.86,0-1.72,1.6-3.51,1.14-5.33.52a9.36,9.36,0,0,0-4.68-.29,31.14,31.14,0,0,1-10.33-.08c-1.56,0-3.11-.07-4.66,0C742.81,474.59,739.86,473.86,737,474.81ZM673.77,347.92c.68,5.68,5.22,11.11,10.49,12.55,6.94,1.9,13.23.82,18.71-4.1,4.54-4.08,5.71-9.33,5.59-15.1,0-.89-.44-1.55-1.29-1.39s-.76,1-.52,1.65a5.05,5.05,0,0,1,.16,3c-1.55,6-4.33,10.88-10.89,12.88-8.23,2.51-16.07-.25-20.46-7.66C675.16,349,674.92,348.13,673.77,347.92ZM755.94,438c-.19.36-.34.5-.33.63a6,6,0,0,0,.26,1.2c1.56,4.59-.23,8.24-3.27,11.51a37.48,37.48,0,0,1-7,6c-.7.46-1.53.89-1,1.92a1.67,1.67,0,0,0,2.16.72,7,7,0,0,0,2.23-1c1.91-1.46,3.79-3,5.58-4.55C759.72,449.79,760.05,442.56,755.94,438Zm-75.82-96.52c.25,4.05,2.51,7.08,5.18,9.77a2.17,2.17,0,0,0,3.58-1.17c.71-3.32,1.17-6.72-.26-10-.35-.8-.83-1.66-1.78-1.4s-.85,1.29-.66,2.12c.35,1.53.77,3.05,1.09,4.59.24,1.15,1.16,2.73-.33,3.3s-2.34-.92-3.11-2c-.33-.47-.51-1-.82-1.53C682.19,343.79,681.65,342.29,680.12,341.45Zm11.36-2.16a13.5,13.5,0,0,0,4.11,9.65,1.72,1.72,0,0,0,3.08-.88,20.92,20.92,0,0,0-1.53-12.85,1.14,1.14,0,0,0-1.6-.73c-.81.37-.63,1.1-.34,1.71,1.43,3.06,1.58,6.39,2,9.65.09.6.29,1.45-.48,1.73s-.9-.57-1.27-1a11.42,11.42,0,0,1-1.91-3.45C693,341.84,692.74,340.33,691.48,339.29Zm55.68,109.47a24.74,24.74,0,0,0-1.53-6.15c-.32-.75-.48-1.69-1.62-1.5a1.82,1.82,0,0,0-1.4,1.84,9.65,9.65,0,0,0,2.1,6.68c.38.52,1,1,1.7.68S747.12,449.26,747.16,448.76Zm-9.46.41c-.37-1.5-.76-3.1-1.15-4.7a1.48,1.48,0,0,0-1.41-1.19c-.83-.06-1.17.55-1.32,1.22-.47,2.15-.45,4.23,1.22,5.93.52.52,1.13,1.07,2,.58C737.66,450.63,737.66,449.94,737.7,449.17Z" transform="translate(-152.04 -239.13)"/><path class="cls-2" d="M619.22,284c.7,3.93,3.18,7,4.83,10.53a65.33,65.33,0,0,1,3.44,8.11c.84,2.63,2.69,4.91,3.94,7.42,2.4,4.84,4.34,9.95,7.13,14.54,2.29,3.76,3.66,8,6.26,11.55a19.49,19.49,0,0,1,3.07,6.47c-.65,1.15-1.83,1.83-2.41,3.1a35.68,35.68,0,0,1-4,7.67c-2.86,3.71-4.68,8.23-7.06,12.33s-4.62,7.94-7.11,11.81a135.83,135.83,0,0,1-18.81.3c-12.72-.54-25.43-1.32-38.17-.66-2,.11-4.36.15-5.55,1.58-.88,1.07-1.54,1.55-2.69,1.42-1.79-.2-1.62.8-1.43,2,.39,2.36,1.83,4.25,2.83,6.33,7.75,16.06,16.19,31.76,24.25,47.65,1.12,2.19,2.79,4.13,3.25,6.65a16.49,16.49,0,0,0-3.53,5c-3.41,6.48-7.23,12.74-10.46,19.32-1.62,3.29-3.89,6.24-5.43,9.64-.67,1.46-2.92.46-4.44.68-4.86.71-9.57-1.13-14.5-.65-3.87.37-7.92-.34-11.8-1.09A24.46,24.46,0,0,0,533,475c-3.75.5-7.42-.61-11.08-.13-3.47.45-6.81-.13-10.21-.35-2.31-.16-4.58.35-6.95-.52-1.31-.48-1.74-.76-1.56-2.12.73-5.5,4-9.81,6.55-14.47,2.87-5.28,6.11-10.35,9-15.62,2.27-4.12,5.37-7.77,7.64-11.89,2.82-5.09,5.84-10.09,8.9-15,2.81-4.53,5.15-9.36,8.31-13.69,2.19-3,3.76-6.4,5.74-9.56,3.66-5.82,6.87-11.93,10.79-17.6,2-2.81,3.57-5.84,5.4-8.73,2.49-3.92,4.46-8.11,6.71-12.13,1-1.82,2.64-3.36,3.73-5.44s2.77-4.26,3.77-6.58c1.4-3.26,4.38-5.35,5.79-8.64,2-4.66,5.37-8.56,8-12.86,1.85-3,3.16-6.35,5.23-9.16,2.78-3.77,4.56-8.1,7.33-11.85.84-1.14,1.83-2.38,1.76-4,0-.86.64-1.35,1.3-1.68a3.17,3.17,0,0,0,1.85-2.5c.24-2.48,2-3.88,3.53-5.48C615.85,283.6,617.38,282.92,619.22,284ZM565.44,412.82c-2.15,2.1-2.89,4.84-4.13,7.33-4.1,8.3-5.23,17.59-8.63,26.13-.28.71-.51,1.71.54,2.15a1.87,1.87,0,0,0,2.21-.6c5-5.15,7.85-11.61,11.26-17.74.37-.66.57-1.51-.29-1.95a1.58,1.58,0,0,0-2.18.61,16.33,16.33,0,0,0-1.17,2.46,29.4,29.4,0,0,1-5.6,8.94C558.87,430.67,562,421.69,565.44,412.82Zm54.26-85.75a1,1,0,0,0-1.06.68c-4.15,8.21-5.13,17.26-6.8,26.11a1.5,1.5,0,0,0,1.49,1.89,1.56,1.56,0,0,0,1.93-1.44,12.42,12.42,0,0,1,2-4.49A28.27,28.27,0,0,0,621,339.61c.11-.73.08-1.53-.51-1.78s-1.13.5-1.43,1.07c-.83,1.58-1.6,3.18-2.39,4.76l-.6-.19C616.4,337.84,618.36,332.52,619.7,327.07Zm9,1.88c0-.68-.08-1.65-.86-1.44a3.05,3.05,0,0,0-2.11,3c-.07.67.13,1.91.89,1.73C628.11,331.84,628.72,330.49,628.7,329Zm-56.24,87.92c-.08-.7-.18-1.48-.91-1.31-1.38.32-1.48,1.6-1.6,2.75-.07.6.18,1.33.89,1.19C572.31,419.23,572,417.76,572.46,416.87Zm39.72-90.07a1.15,1.15,0,0,0-1.25,1.2c0,.79-.1,1.87.76,2.07s1.14-.76,1.19-1.51S613.24,327.05,612.18,326.8Zm-52.1,85.82c-.08-.65-.33-1.19-1.09-1a1.56,1.56,0,0,0-1.24,1.65c0,.57.33,1.4.92,1.23A2,2,0,0,0,560.08,412.62Z" transform="translate(-152.04 -239.13)"/><path class="cls-2" d="M668.14,380.53c3.15.52,3.37,3.61,4.74,5.6,3.82,5.56,6.3,11.9,10,17.55,1.36,2.06,2,4.67,3,7a34,34,0,0,0,4.29,7.95c1.19,1.51,1,3.91,2.21,5.84a61.21,61.21,0,0,1,4.82,9.17c.84,2.08,2,4.47,1.16,7a30.39,30.39,0,0,0-3.76,6.64c-1.43,3.3-3.23,6.46-5,9.59-2.56,4.63-4.29,9.65-7.09,14.13a5,5,0,0,0-.41,1.16c-.42,1.39,1,3.38-1.13,4.17-3,1.13-6.12,2.38-9.08-.06-1.26-1-2.61-.84-4-.82-4.68.07-9.34.48-14,.06-3.81-.34-7.68,0-11.53-.1-4.33-.09-8.68-.57-13-.38-3.3.15-6.49-.31-9.73-.47-2.41-.12-4.8.26-7.2-.54-1-.32-1.71-.46-1.8-1.59.39-1-.1-2.08.42-3.15,3.12-6.38,7.19-12.18,11-18.13,2.21-3.45,4.47-6.92,6.79-10.32,4.23-6.2,7.77-12.87,11.62-19.32a23.78,23.78,0,0,1,3.9-5.4,9.2,9.2,0,0,0,2.66-4.95,1.73,1.73,0,0,0,1.2-1.16c1.54-4.46,4.66-8.09,6.61-12.36,1.11-2.44,2.17-5.08,4.1-7.06a18.42,18.42,0,0,0,4-6.44C664,381.41,665.32,380.16,668.14,380.53Zm-5,63.37c-.19-5,2-9.64,1.89-14.93-.59.48-.87.59-.92.77-1.39,5-3,10-2.58,15.35.08.9-.09,2,1,2.33s1.59-.59,2.19-1.25c2.21-2.41,2.66-5.68,4.12-8.46a33.55,33.55,0,0,0,3.79-11.26c.07-.53.31-1.3-.41-1.53s-.79.57-1,1.07q-3.35,8.43-6.71,16.85A1.34,1.34,0,0,1,663.15,443.9Zm14.5-14c0-1-.3-2.16-1.54-2-1.93.24-2.33,1.87-2.4,3.54,0,1,.43,2.14,1.46,1.86A3.18,3.18,0,0,0,677.65,429.85Zm-19.93-.51c0,.79-.16,1.68.83,1.79s1.36-.81,1.51-1.61-.13-1.83-1.06-1.91S657.92,428.61,657.72,429.34Z" transform="translate(-152.04 -239.13)"/><path class="cls-1" d="M647.05,411.14a9.2,9.2,0,0,1-2.66,4.95,23.78,23.78,0,0,0-3.9,5.4c-3.85,6.45-7.39,13.12-11.62,19.32-2.32,3.4-4.58,6.87-6.79,10.32-3.81,5.95-7.88,11.75-11,18.13-.52,1.07,0,2.14-.42,3.15-1-.62-1.73-1.55-3.26-.72-1.34.72-1.85-.77-2.49-1.75a76.15,76.15,0,0,1-6.77-13.32c-2-4.77-5.4-8.9-7.18-13.84-.46-2.52-2.13-4.46-3.25-6.65-8.06-15.89-16.5-31.59-24.25-47.65-1-2.08-2.44-4-2.83-6.33-.19-1.18-.36-2.18,1.43-2,1.15.13,1.81-.35,2.69-1.42,1.19-1.43,3.57-1.47,5.55-1.58,12.74-.66,25.45.12,38.17.66a135.83,135.83,0,0,0,18.81-.3c1.79.64,2.13,2.44,3,3.81C636.26,391,641,401.49,647.05,411.14Zm-40.43-18.33a25.1,25.1,0,0,0,7.54,13.81c1.45,1.33,2.22-.52,2.06-1.48-.75-4.55-1.42-9.16-3.62-13.32-.26-.49-.6-1.16-1.28-.83s-.54,1.11-.42,1.77a44.91,44.91,0,0,0,2.34,8.28c.36.93,1,1.86.53,3.46C611.06,400.5,609.53,396.21,606.62,392.81Zm13,1.22c-.53-1-1.2-2.32-1.92-3.59-.29-.5-.84-.45-1.32-.33a1.08,1.08,0,0,0-.83,1.31,8.59,8.59,0,0,0,1.75,4,1.29,1.29,0,0,0,1.58.31C619.45,395.47,619.82,395.05,619.65,394Zm-16.43,4.46a2.17,2.17,0,0,0,.37-1,6.82,6.82,0,0,0-1.7-4.74.87.87,0,0,0-1.33-.09,2.18,2.18,0,0,0-.21,2.57C600.91,396.37,601,397.91,603.22,398.49Z" transform="translate(-152.04 -239.13)"/><path class="cls-1" d="M737,474.81c2.87-.95,5.82-.22,8.72-.41,1.55-.1,3.1,0,4.66,0-1.35.93-2.87.48-4.3.5C743,474.92,740,474.84,737,474.81Z" transform="translate(-152.04 -239.13)"/><path class="cls-1" d="M630.73,280c-2.6.9-5.28.21-7.91.42C625.41,279.4,628.09,280.15,630.73,280Z" transform="translate(-152.04 -239.13)"/><path class="cls-1" d="M721.54,475.31c2.43-.93,5-.19,7.41-.43C726.53,475.81,724,475.28,721.54,475.31Z" transform="translate(-152.04 -239.13)"/><path class="cls-3" d="M673.77,347.92c1.15.21,1.39,1.09,1.79,1.78,4.39,7.41,12.23,10.17,20.46,7.66,6.56-2,9.34-6.84,10.89-12.88a5.05,5.05,0,0,0-.16-3c-.24-.67-.26-1.5.52-1.65s1.28.5,1.29,1.39c.12,5.77-1,11-5.59,15.1-5.48,4.92-11.77,6-18.71,4.1C679,359,674.45,353.6,673.77,347.92Z" transform="translate(-152.04 -239.13)"/><path class="cls-3" d="M755.94,438c4.11,4.59,3.78,11.82-1.35,16.38-1.79,1.59-3.67,3.09-5.58,4.55a7,7,0,0,1-2.23,1,1.67,1.67,0,0,1-2.16-.72c-.51-1,.32-1.46,1-1.92a37.48,37.48,0,0,0,7-6c3-3.27,4.83-6.92,3.27-11.51a6,6,0,0,1-.26-1.2C755.6,438.47,755.75,438.33,755.94,438Z" transform="translate(-152.04 -239.13)"/><path class="cls-3" d="M680.12,341.45c1.53.84,2.07,2.34,2.89,3.64.31.49.49,1.06.82,1.53.77,1.1,1.77,2.53,3.11,2s.57-2.15.33-3.3c-.32-1.54-.74-3.06-1.09-4.59-.19-.83-.37-1.83.66-2.12s1.43.6,1.78,1.4c1.43,3.3,1,6.7.26,10a2.17,2.17,0,0,1-3.58,1.17C682.63,348.53,680.37,345.5,680.12,341.45Z" transform="translate(-152.04 -239.13)"/><path class="cls-3" d="M691.48,339.29c1.26,1,1.49,2.55,2.08,3.87a11.42,11.42,0,0,0,1.91,3.45c.37.39.59,1.21,1.27,1s.57-1.13.48-1.73c-.44-3.26-.59-6.59-2-9.65-.29-.61-.47-1.34.34-1.71a1.14,1.14,0,0,1,1.6.73,20.92,20.92,0,0,1,1.53,12.85,1.72,1.72,0,0,1-3.08.88A13.5,13.5,0,0,1,691.48,339.29Z" transform="translate(-152.04 -239.13)"/><path class="cls-3" d="M747.16,448.76c0,.5-.06,1.23-.75,1.55s-1.32-.16-1.7-.68a9.65,9.65,0,0,1-2.1-6.68,1.82,1.82,0,0,1,1.4-1.84c1.14-.19,1.3.75,1.62,1.5A24.74,24.74,0,0,1,747.16,448.76Z" transform="translate(-152.04 -239.13)"/><path class="cls-3" d="M737.7,449.17c0,.77,0,1.46-.71,1.84-.82.49-1.43-.06-2-.58-1.67-1.7-1.69-3.78-1.22-5.93.15-.67.49-1.28,1.32-1.22a1.48,1.48,0,0,1,1.41,1.19C736.94,446.07,737.33,447.67,737.7,449.17Z" transform="translate(-152.04 -239.13)"/><path class="cls-4" d="M565.44,412.82c-3.49,8.87-6.57,17.85-8,27.33a29.4,29.4,0,0,0,5.6-8.94,16.33,16.33,0,0,1,1.17-2.46,1.58,1.58,0,0,1,2.18-.61c.86.44.66,1.29.29,1.95-3.41,6.13-6.3,12.59-11.26,17.74a1.87,1.87,0,0,1-2.21.6c-1.05-.44-.82-1.44-.54-2.15,3.4-8.54,4.53-17.83,8.63-26.13C562.55,417.66,563.29,414.92,565.44,412.82Z" transform="translate(-152.04 -239.13)"/><path class="cls-4" d="M619.7,327.07c-1.34,5.45-3.3,10.77-3.59,16.4l.6.19c.79-1.58,1.56-3.18,2.39-4.76.3-.57.69-1.39,1.43-1.07s.62,1.05.51,1.78a28.27,28.27,0,0,1-3.75,10.21,12.42,12.42,0,0,0-2,4.49,1.56,1.56,0,0,1-1.93,1.44,1.5,1.5,0,0,1-1.49-1.89c1.67-8.85,2.65-17.9,6.8-26.11A1,1,0,0,1,619.7,327.07Z" transform="translate(-152.04 -239.13)"/><path class="cls-4" d="M628.7,329c0,1.54-.59,2.89-2.08,3.25-.76.18-1-1.06-.89-1.73a3.05,3.05,0,0,1,2.11-3C628.62,327.3,628.72,328.27,628.7,329Z" transform="translate(-152.04 -239.13)"/><path class="cls-4" d="M572.46,416.87c-.42.89-.15,2.36-1.62,2.63-.71.14-1-.59-.89-1.19.12-1.15.22-2.43,1.6-2.75C572.28,415.39,572.38,416.17,572.46,416.87Z" transform="translate(-152.04 -239.13)"/><path class="cls-4" d="M612.18,326.8c1.06.25.75,1.1.7,1.76s-.36,1.7-1.19,1.51-.81-1.28-.76-2.07A1.15,1.15,0,0,1,612.18,326.8Z" transform="translate(-152.04 -239.13)"/><path class="cls-4" d="M560.08,412.62a2,2,0,0,1-1.41,1.86c-.59.17-.92-.66-.92-1.23A1.56,1.56,0,0,1,559,411.6C559.75,411.43,560,412,560.08,412.62Z" transform="translate(-152.04 -239.13)"/><path class="cls-4" d="M663.15,443.9a1.34,1.34,0,0,0,1.38-1.06q3.38-8.41,6.71-16.85c.2-.5.16-1.33,1-1.07s.48,1,.41,1.53a33.55,33.55,0,0,1-3.79,11.26c-1.46,2.78-1.91,6.05-4.12,8.46-.6.66-1.07,1.64-2.19,1.25s-.92-1.43-1-2.33c-.42-5.33,1.19-10.32,2.58-15.35,0-.18.33-.29.92-.77C665.14,434.26,663,438.92,663.15,443.9Z" transform="translate(-152.04 -239.13)"/><path class="cls-4" d="M677.65,429.85a3.18,3.18,0,0,1-2.48,3.38c-1,.28-1.5-.83-1.46-1.86.07-1.67.47-3.3,2.4-3.54C677.35,427.69,677.66,428.84,677.65,429.85Z" transform="translate(-152.04 -239.13)"/><path class="cls-4" d="M657.72,429.34c.2-.73.23-1.82,1.28-1.73s1.22,1.05,1.06,1.91-.47,1.72-1.51,1.61S657.68,430.13,657.72,429.34Z" transform="translate(-152.04 -239.13)"/><path class="cls-3" d="M606.62,392.81c2.91,3.4,4.44,7.69,7.15,11.69.49-1.6-.17-2.53-.53-3.46a44.91,44.91,0,0,1-2.34-8.28c-.12-.66-.32-1.42.42-1.77s1,.34,1.28.83c2.2,4.16,2.87,8.77,3.62,13.32.16,1-.61,2.81-2.06,1.48A25.1,25.1,0,0,1,606.62,392.81Z" transform="translate(-152.04 -239.13)"/><path class="cls-3" d="M619.65,394c.17,1-.2,1.44-.74,1.7a1.29,1.29,0,0,1-1.58-.31,8.59,8.59,0,0,1-1.75-4,1.08,1.08,0,0,1,.83-1.31c.48-.12,1-.17,1.32.33C618.45,391.71,619.12,393,619.65,394Z" transform="translate(-152.04 -239.13)"/><path class="cls-3" d="M603.22,398.49c-2.27-.58-2.31-2.12-2.87-3.24a2.18,2.18,0,0,1,.21-2.57.87.87,0,0,1,1.33.09,6.82,6.82,0,0,1,1.7,4.74A2.17,2.17,0,0,1,603.22,398.49Z" transform="translate(-152.04 -239.13)"/><text class="cls-5" transform="translate(0 231.29)"><tspan class="cls-6">S</tspan><tspan class="cls-7" x="155.1" y="0" xml:space="preserve">N     P</tspan><tspan class="cls-8" x="809.25" y="0">L</tspan><tspan x="928.71" y="0">Y</tspan></text></svg>