<svg id="Livello_3" data-name="Livello 3" xmlns="http://www.w3.org/2000/svg" viewBox="0 0 768.7 520.98"><defs><style>.cls-1{fill:#060606;}.cls-2{fill:#fc7e54;}.cls-3{fill:#deddd3;}</style></defs><path class="cls-1" d="M866.51,242c7.43,6.64,11.17,15.28,14.81,23.72,4.29,10,4.79,20.86,5.64,31.62.83,10.4-.51,20.67-1.61,30.88a28.6,28.6,0,0,1-4.86,13.12c-2.56,3.65-4.18,7.92-6.43,11.69-4.09,6.88-10.21,12.3-15.64,18.19a7,7,0,0,1-.85.67c-9,7.14-9.47,8-3.89,17.56,8.58,14.67,11.91,31,15.12,47.24,3.53,17.88.55,35.64-1.84,53.41-3.53,26.26-15.37,48.8-32.29,68.36-16.33,18.89-36.33,32.92-62.07,36.62a89.19,89.19,0,0,1-9,.54c-6.21.24-8.75,5-12.94,7.9-7,4.79-11.75,12.35-20.37,15.19a33.47,33.47,0,0,0-12.72,7.85c-6.13,6.14-14.21,8.28-21.59,11.42-11.43,4.85-23.57,8-35.41,11.91-.67.21-1.43.66-2,.52-8-2-15.56,2.32-23.24,1.45-4.62-.52-9.22-1.09-13.87-1.42-6.15-.44-6.94.19-7.45,6.13-.8,9.31.79,18.61-.76,28a77.15,77.15,0,0,1-11.13,29.71c-7.84,12.17-18.65,21.1-30.57,29.45-11.2,7.86-23.5,12.65-36.06,16.09a88.45,88.45,0,0,1-23.71,3.17,153.54,153.54,0,0,1-39.75-5.5c-19.56-5.36-38-13.51-53.34-26.88-16.4-14.3-26.45-32.75-23.9-55,1.62-14.16,10.15-25.61,23.38-32.48,15.52-8.07,32.3-12.11,49.44-14.77,14.6-2.27,29-3.8,44-1.55,10.5,1.57,21.09,3.54,31.6,4.35s20.39,4.84,31.09,3.2c3.22-.49,6.6,2.24,10.4,1.86,4.24-.41,8.46-1.14,12.83.83,2.05.92,2.91-2.31,2.05-4-3.81-7.35-8.94-13.9-13.43-20.79-5-7.64-11.92-13.15-17.54-20-8.15-9.92-15.8-20.36-25.24-29.17-2.78-2.59-5.17-2.22-8.74.45-3.94,2.94-7.42,7.07-12.46,8.43-4.64,1.25-6,6.43-10.68,8-11.54,3.79-21.37,11.26-33,15.35a184.35,184.35,0,0,1-27.94,7.41c-13.26,2.46-26.83,2.84-39.92,6.3-2.51.66-5-.36-7.4-1-5.62-1.58-11.44-1.07-17.16-1.6-9.27-.85-16.87-5.34-24.28-10.22-3.55-2.33-6-2.29-9.73,0a312.42,312.42,0,0,1-49.38,24.2c-15.4,6-30.94,11.46-46.8,16a109.1,109.1,0,0,1-47.51,2.82c-.79-.13-2-.73-2.13-1.32-.32-1.31,1.05-1.61,2-2.08,1.74-.85,3.45-.35,5.25-.1a76.9,76.9,0,0,0,29.23-1.61c12.33-3,24.58-6.18,36.4-10.84,15-5.91,30.15-11.27,44.68-18.06,8.64-4,16.87-9.2,25.16-14.06,2-1.17,4.71-1.91,1.69-6.71-6.91-11-11.56-22.93-9.8-37.15,1.57-12.62,2.34-25.14,8-36.74,3.83-7.81,9.64-14.22,15-20.93,9-11.25,20.41-19.47,33.24-25.61,10.52-5,21.65-7.4,33.33-4.34,9.13,2.39,14.61,11.82,13.19,21.25-2.73,18.11-10.64,34.25-20.3,49.2a163.91,163.91,0,0,1-36.65,40.08c-5.38,4.22-10.56,8.7-15.71,13.19-1.41,1.23-4.31,2.3-3.46,4.26s3.2,3.33,5.24,4.14c15.45,6.2,31.62,6.91,47.73,4.32,7.06-1.14,14.16-.13,21.36-2.55,6.75-2.27,14.15-3.69,21.22-5.37,11.49-2.72,22.29-8.07,32.95-13.31,2.71-1.34,3.86-4.46,6.69-6.17,3.71-2.23,8-2.84,11.49-6,4.84-4.38,10.7-7.63,16-11.48,1.17-.85,1.31-1.85.33-3.56-8.06-14-12.13-29-11.23-45.46a156.3,156.3,0,0,1,6.82-38.93c6.54-20.67,20.64-35.24,38.89-45.53,7.77-4.38,16.86-6.1,26.44-1.64,5.11,2.38,11.6,2.69,14.53,8,3.52,6.39,9,11.62,8.41,20.5-.83,12.48-4.29,24-8.8,35.33-2.77,7-6.75,13.2-10.88,19.53-5.34,8.19-14.44,13.5-17.19,23.73-1.08,4-5.69,6.62-8.67,9.8-4.75,5.06-10.67,9-16.05,13.48-2.4,2-2.69,5.5-5.84,7.35-1.47.87,1,3.81,2.46,5.33,5.63,5.73,11.24,11.49,17,17.05,3.9,3.74,5.7,9,9.68,12.67,9,8.4,16.45,18.29,24.19,27.81,3.92,4.82,6.41,10.87,9.14,16.55,1.36,2.84,2,4.09,6,3.64,5.62-.62,11.49.55,17.31-.17,7.31-.92,14.69,1,22.09-.87,6-1.54,12.43-.88,18.5-2.86C680,630.85,687,630,692,624.7c1.5-1.57,3.29-.44,5-1,6.2-2,11.36-6.18,17.94-7.52a14.41,14.41,0,0,0,9.09-6.28c2.59-4,7.89-4.54,11.25-7.75.73-.7,2.33-.7,2.77-1.47,1.39-2.43,5.91-3.07,4.85-6.48-.78-2.5-4.35-1.64-6.61-2.44a130.81,130.81,0,0,1-29.58-14.69c-7.55-5.1-15.44-9.69-21.32-16.86-10.21-12.45-18-25.87-17.05-42.78.86-15.81,6-30.39,13.18-44.23,3.1-6,7.82-11.16,11.77-16.74,1.4-2,3.74-2.66,5.57-4,14.07-10,29.18-15.45,47.09-12.92,7.33,1,14.94,2,20.3,6.13,8.6,6.6,17.38,13.16,23.55,23,5.91,9.39,4.58,19.84,7.49,29.55a17.31,17.31,0,0,1-1.06,11.65c-2.08,4.29,1.33,9-.2,13.88-2.67,8.49-3.19,17.91-7.09,25.69-3.46,6.89-6.43,14.15-10.47,20.89-2.87,4.79-8.18,8.37-8.6,14.62a1.22,1.22,0,0,1-.49.89c-1.71.7-4.66.77-3.48,3.52s3.77.48,5.6.2c23.29-3.54,41.8-15,57.24-32.77A174.91,174.91,0,0,0,853,519.69c4.66-9.36,6.92-19.85,8.53-30.29a264.87,264.87,0,0,0,3.08-27.56c.64-12.93-.36-25.61-4.07-38-1.89-6.3-4.46-12.44-5.94-18.83-1.53-6.59-5.87-11.79-8-18.06-1-3.16-2.77-2-4.89-.48a93.25,93.25,0,0,1-28.25,13.69c-11.22,3.19-22.94.84-33.8-1.67C764,394.83,748.82,388.28,737.54,376c-8.54-9.31-17.46-18.68-16.3-33.23.89-11.26,8.4-22.26,19-26.43,11.38-4.49,22.82-3.68,34.33-1.14,22.15,4.87,39,18,53.84,34.43a91.75,91.75,0,0,1,12.88,17.83c2.35,4.39,4.43,3,6.7.76A130,130,0,0,0,865,347.7c9.94-15,14.9-31.48,14.3-49.54-.28-8.56,1.32-17.39-2.2-25.51-3.74-8.63-5.24-18.12-10.3-26.21A5.06,5.06,0,0,1,866.51,242ZM605.61,661.22c-.21-2.51-.29-5-.64-7.52-.38-2.66-1.49-5.52-4.73-4.32-7.51,2.76-15.2.58-22.17-.51-12.3-1.92-25.17-1.68-36.86-7.1-2.67-1.23-6,1.36-8.26.27-5.15-2.46-10.78-2.73-16.09-4-5-1.19-10.09-4.18-15.36-2.63-5,1.46-10.22.72-14.67.14-11.47-1.51-22.35,1.4-33.41,2.41-8.58.78-16.65,4.61-24.84,7.68-24.12,9-31.13,25.6-26.52,48.09,3.22,15.76,13.94,27.14,26.19,35.83a129.08,129.08,0,0,0,52.41,22.25c10.61,1.89,21.18,1.9,31.69,1.94a62.33,62.33,0,0,0,19.54-2.67c9.65-3.17,19.25-6.22,28.42-10.76,7.82-3.87,13.44-10.31,20.25-15.33,8.52-6.28,13.89-14.78,18.35-24.07C605,688.32,606.25,675,605.61,661.22Zm69.83-142.11c0,3.18-.15,6.37,0,9.55.77,13.47,9.76,22.39,18,31.48,10.72,11.77,24.84,18.76,39.18,24.69,7.81,3.22,16.85,9.12,24.34-3.12,4.49-7.33,9.62-14.49,13.7-22,2.42-4.5,5-9.23,6.07-14.8,1.59-8.47,5-16.52,6.53-25.22,2.47-14.07.38-27.26-4.86-40.06-2.81-6.86-6.63-13.33-12.48-18.38-2.19-1.88-4-2.91-7-2.86-2.85.06-3.47-4-7.3-4.45-5-.6-10.24-.83-15-1.65-17.34-2.95-30.38,4.86-41.06,16C682.32,482,674.94,499.26,675.44,519.11ZM347.73,544.56c-.43,3.86.66,7.59,1.27,11.28,1.29,7.87,2.71,15.76,7.82,22.41,2.5,3.25,4.69,4.37,8.32,1.57,14.21-10.94,27.68-22.69,39.5-36.18,9.59-10.95,17.34-23.27,24.15-36.05,5-9.42,9.88-19.07,9.81-30.36,0-4.29-1.5-7.86-4.67-9.68a29.55,29.55,0,0,0-16.76-4c-17.88,1.17-31.49,11.39-43.15,23.2-9,9.17-17.74,19.38-21.26,32.88C350.6,527.89,348.5,536.06,347.73,544.56Zm177.52-30.22c1.11,3.92,2.47,7.8,3.28,11.79,1,4.85,3.83,8.83,5.75,13.23,2.64,6.1,5,6.11,9.76.95,7.09-7.74,14.36-15.33,21.42-23.09,4.44-4.88,9.48-9.47,12.79-15.06,5.28-8.9,10.93-17.58,15.52-27,3.7-7.6,7.73-14.75,8.45-23.31.51-6,.63-11.65-2.36-17.48-3.21-6.25-8.7-8.15-14.22-10.9s-10.48-2.27-15.87-.13c-10.24,4.07-18.39,10.79-25.84,18.79-10.44,11.23-15.56,24.7-17.59,39.49C524.86,492.45,525.39,503.38,525.25,514.34ZM760.06,317.86c-7.91-.87-15.67,0-22.94,4.59-8.8,5.6-14.76,18.06-11.14,27.48,4.51,11.76,12.43,21.86,23.18,28.1,14.54,8.43,29.88,14.47,47.74,14.41,15.45-.05,27.77-5.23,39.67-13.76,3.26-2.33,3.51-4.72,1.56-7.62-9.29-13.78-18.32-27.63-32.72-37.12C791.58,324.84,777.83,316.39,760.06,317.86Z" transform="translate(-118.52 -241.96)"/><path class="cls-2" d="M169.9,603.19c-1.87-.12-3.75-.44-4.51-2.38-3.26-8.37-10.69-13.11-16.56-19.21a17.16,17.16,0,0,1-2-2.52c-7.3-11.36-14.66-22.79-20-35.17-5.75-13.41-10.33-27.45-7.49-42.54,1.86-9.89,6.94-17.31,16.56-21.29,14.72-6.08,30.23-8.77,45.8-7,7.61.86,15.24,1.13,22.83,1.92,1,2,2.2,2.59,3.85.66a43.69,43.69,0,0,0,10.35,1.61c2.38,3.42,5.15,1.78,7.89.61,5.55,2.34,10.65,5.57,16.07,8.2,4.15,2,7.64,5.64,10.84,9.37,3.57,4.15,7.24,8.22,10.74,12.47,10.46,12.7,11.68,32.88,3.43,47.42-6.4,11.29-16.25,18.3-26.79,24.94-17.3,10.89-36.45,17.5-55.46,24.46l-6.25-.87-2.37-.19C174.56,603.41,172.35,601.54,169.9,603.19ZM145.22,481.52c-2.6,1.65-4,3.35-4.19,6.17-.54,10,7.56,23.37,16.77,26.8,12.51,4.65,24.66,10,38.44,11a63.22,63.22,0,0,0,39.66-10.09c2.47-1.58,5.81-4.55,4-7.18-2.22-3.17-6.24-1.05-9.36.39-.47.21-.72.86-1.18,1.09-4.72,2.4-8.86,6-14.18,7.11-16.55,3.46-32.41.63-47.88-5.47-8.53-3.37-16.53-7-20.49-16.51C145,490.39,146,486.1,145.22,481.52Zm51.5,9.62a3.21,3.21,0,0,0-3.59-3.34c-2.42.05-6.27,5.53-6,8.47a2.54,2.54,0,0,0,3.35,2.47C194.59,497.81,195.7,494.33,196.72,491.14Zm-23.51,1.15c3.32-.9,4.17-4.22,5-7.26a2.29,2.29,0,0,0-2.77-2.55c-4,.85-3.64,4.86-4.89,7.6C169.9,491.44,171.18,492.33,173.21,492.29Z" transform="translate(-118.52 -241.96)"/><path class="cls-1" d="M208.43,475.67c-1.65,1.93-2.88,1.36-3.85-.66,2.5-14.09,4.65-28.23,9.83-41.73,1-2.62,1.7-3.28,4.35-3,7.33.72,14.24,3.36,21.57,4.17,4.82.53,9.89-.74,14.51,2.57,4.9,3.51,5.38,6.28,1.54,10.82-9.14,10.8-20.81,19.06-29.71,30.07-2.74,1.17-5.51,2.81-7.89-.62,4.56-3.34,6-9.14,10.43-12.78,7-5.68,13.25-12.22,19.82-18.4l-.06-1.26-1.1.38c-3.85-1.3-7.8-2.22-11.75-3.19-4.47-1.1-9.34-.63-13.47-3.09-3.28-1.95-5.06-1.5-6,2.6C214.09,453,211.2,464.29,208.43,475.67Z" transform="translate(-118.52 -241.96)"/><path class="cls-1" d="M179.25,603.88l6.25.87c-1.49,3-1.85,6.57-4.7,9.18,1.87.78,3.5,1.33,5,2.12,7.7,4.05,7.82,12.7,1.5,18.75-7.64,7.31-16,5.73-24.48,3.67-4.61-1.12-7.66-9.4-6-14.47.9-2.82,2.32-6.26,4.61-7,7-2.41,6.62-8.63,8.5-13.76,2.45-1.65,4.66.22,7,.5-.79,1.59-1.54,3.2-2.36,4.77-3.18,6.08-3.19,6.08,3.53,6,.52,0,1-.1,2.09-.2C175,611,178.9,607.36,179.25,603.88Zm-8.08,29c4.89-.46,8.91-2,12.16-5.46,1.75-1.84,1.36-3.51,0-5.22-1.68-2.16-14.11-5.12-16.51-3.84-3.37,1.8-5.93,4.45-5.09,8.55C162.81,632.14,167.63,631.85,171.17,632.92Z" transform="translate(-118.52 -241.96)"/><path class="cls-1" d="M145.22,481.52c.75,4.58-.27,8.87,1.56,13.28,4,9.52,12,13.14,20.49,16.51,15.47,6.1,31.33,8.93,47.88,5.47,5.32-1.11,9.46-4.71,14.18-7.11.46-.23.71-.88,1.18-1.09,3.12-1.44,7.14-3.56,9.36-.39,1.84,2.63-1.5,5.6-4,7.18a63.22,63.22,0,0,1-39.66,10.09c-13.78-.93-25.93-6.32-38.44-11-9.21-3.43-17.31-16.77-16.77-26.8C141.18,484.87,142.62,483.17,145.22,481.52Z" transform="translate(-118.52 -241.96)"/><path class="cls-1" d="M196.72,491.14c-1,3.19-2.13,6.67-6.21,7.6a2.54,2.54,0,0,1-3.35-2.47c-.3-2.94,3.55-8.42,6-8.47A3.21,3.21,0,0,1,196.72,491.14Z" transform="translate(-118.52 -241.96)"/><path class="cls-1" d="M173.21,492.29c-2,0-3.31-.85-2.7-2.21,1.25-2.74.93-6.75,4.89-7.6a2.29,2.29,0,0,1,2.77,2.55C177.38,488.07,176.53,491.39,173.21,492.29Z" transform="translate(-118.52 -241.96)"/><path class="cls-3" d="M247.87,445.21l1.1-.38.06,1.26Z" transform="translate(-118.52 -241.96)"/><path class="cls-1" d="M473.6,695.63a2.68,2.68,0,0,1-3.21-1.6,2.79,2.79,0,0,1,1.37-3.67c2.79-1.61,5.66-3.08,8.48-4.62,9.19-5,17.66-10.85,22.77-20.41a14,14,0,0,1,4.18-4.82c1.53-1.1,3.42-1.62,4.83,0,1.15,1.34,1.81,2.85.55,4.84a65.3,65.3,0,0,1-17.68,18.84,105.19,105.19,0,0,1-16.33,10C477,694.92,475.37,695.94,473.6,695.63Z" transform="translate(-118.52 -241.96)"/><path class="cls-1" d="M460.29,664.06c-.14,3.47-4.31,8.74-6.68,8.66-2.57-.09-3.25-1.81-3.15-4,.2-4.41,3.71-8.9,6.71-8.55C459.67,660.44,460.2,662.29,460.29,664.06Z" transform="translate(-118.52 -241.96)"/><path class="cls-1" d="M474.19,672.1a4.28,4.28,0,0,1-3.59-4.77c.42-3.35,1.63-6.74,6.07-6.71,2.16,0,4.07.66,3.44,3.4C479.29,667.55,477.73,670.65,474.19,672.1Z" transform="translate(-118.52 -241.96)"/><path class="cls-1" d="M705,530.83c-.2,1.74-.65,3.33-2.12,4.23s-2.31-.43-3.3-1.12c-2.55-1.74-4.72-3.8-5.3-7-.21-1.17-.88-2.34.37-3.46s2.8-1.53,4-.82A14,14,0,0,1,705,530.83Z" transform="translate(-118.52 -241.96)"/><path class="cls-1" d="M716.56,522.9c-.5,2-1.08,3.48-2.7,4.24-2,.92-3.05-.39-3.87-1.78a62.67,62.67,0,0,1-3.47-6.59c-.65-1.46-1-3.09.7-4.3,1.46-1,2.74-.28,4,.41C714.46,516.72,714.48,520.62,716.56,522.9Z" transform="translate(-118.52 -241.96)"/><path class="cls-1" d="M372.53,523.78c1.1-1.29-1.58-4.61,2.44-4.6,2.27,0,3.42,1.13,3.11,3.33s0,5.06-3.19,5.26C372.25,527.93,372.41,525.8,372.53,523.78Z" transform="translate(-118.52 -241.96)"/><path class="cls-1" d="M361.37,526.71a5.28,5.28,0,0,1-2.6-4.86c.07-1.43.79-2.91,2.64-2.6,2.16.35,2.73,2.14,2.62,4C363.93,524.78,363.35,526.33,361.37,526.71Z" transform="translate(-118.52 -241.96)"/><path class="cls-1" d="M546.89,462.77c-.51,3.22-1.15,6.31-4.29,8.16-1.41.84-2.31.34-3.15-.81-2.13-2.94-1.78-5.86-.2-8.94,1.09-2.12,2.08-4.56,4.92-3.75C546.54,458.1,546.56,460.66,546.89,462.77Z" transform="translate(-118.52 -241.96)"/><path class="cls-1" d="M562.19,468.26c-.59,2.83-1.16,6-5,6.44-2.51.27-3-2-2.56-3.73.71-3.11.54-7.41,4.75-7.87C562,462.82,561.91,466,562.19,468.26Z" transform="translate(-118.52 -241.96)"/><path class="cls-1" d="M762.42,344.09a10.67,10.67,0,0,1,3.18.79,7.17,7.17,0,0,1,4,7.58c-.55,3.74-3.79.91-5.8,1a50.35,50.35,0,0,1-6.45-.52c-2.45-.18-5-.81-5.19-3.55-.13-2.54,2.17-3.84,4.48-4.79C758.07,344.05,759.4,343.78,762.42,344.09Z" transform="translate(-118.52 -241.96)"/><path class="cls-1" d="M760.09,369.76c-1.93-.36-3.85-.82-5.79-1.06-2.44-.32-4.16-1.41-4-4s1.07-4.43,4.08-4.74a14.64,14.64,0,0,1,7.34.81c1.89.77,4.69.92,3.76,4.05C764.67,367.35,763.8,370.17,760.09,369.76Z" transform="translate(-118.52 -241.96)"/></svg>