<svg id="Livello_1" data-name="Livello 1" xmlns="http://www.w3.org/2000/svg" viewBox="0 0 837.76 491.4"><defs><style>.cls-1{fill:#758d86;}.cls-2{fill:#fb7e54;}.cls-3{fill:#0b0b0a;}.cls-4{fill:#080807;}</style></defs><path class="cls-1" d="M325.05,615.42c3-1.6,5.56.42,8.11,1.31,16.91,5.91,27.57,17.63,33.21,34.69,5.49,16.6,3.58,31.73-5.81,46.37s-21.67,23.18-39.31,25c-24.22,2.51-41.1-8-52.14-28.28-6.6-12.14-7.53-25.59-3-39.07,5.27-15.83,15.09-27.85,30.36-34.6a65.7,65.7,0,0,1,26-5.52Zm-36.93,24.43A29,29,0,0,0,287,657.31c.54,2.24,1.45,3.74,3.65,4a4.27,4.27,0,0,0,5-3.21c1.35-4.48,2.68-9,3.69-13.53a5.65,5.65,0,0,0-1.7-5.94c-2.26,2-2.59,4.58-3.11,7.22s-.34,5.54-3.32,7.8C289.9,648.68,290.64,644,288.12,639.85Zm19.08,0c-3.2,4.43-3.56,9.38-2.51,14.34,1,4.75,5.17,6.89,8.19,4.63,3.79-2.82,7.44-16.28,5.75-21.16a2.66,2.66,0,0,0-2.24,2c-1.46,4.06-2.8,8.17-4.3,12.21-.41,1.09-.75,2.75-2.32,2.53s-1.62-1.86-1.74-3C307.63,647.58,307.46,643.71,307.2,639.85Z" transform="translate(-124.97 -232.04)"/><path class="cls-1" d="M455.13,614.27c21.06.21,41.72,16.51,47.1,36.2,5.74,21-.69,38.6-14.9,54.63-11.4,12.88-26,18.15-41.88,18.13-17.07,0-30.81-8.64-39.91-23.52-18.6-30.42,3.31-74.78,38.4-80.93,2.91-.51,6.83,1.13,8-3.48A2.88,2.88,0,0,0,455.13,614.27ZM428.43,645c-1.38,9.6-1.23,19.11,2.6,28.26a3,3,0,0,0,5.61-.61c1.13-9.24,4.91-18.1,4.08-27.63-.15-1.62.76-4.31-1.78-4.24-2.07.06-1.27,2.62-1.26,4.08.05,7.33-1.66,14.3-3.91,22C429.81,659.5,432.28,651.63,428.43,645Zm19,1c-.07,2.1.61,4.23,3.83,4,2.18-.16,4-1.25,3.78-3.68s-.66-5.53-3.8-5.67C448.59,640.56,447.28,642.72,447.46,646Zm-33.27,2.41c.86,1.25-.42,4.15,2.53,4.26s3.83-2.14,3.85-4.7c0-2.28-.55-4.74-3.17-4.73S414.59,646,414.19,648.44Z" transform="translate(-124.97 -232.04)"/><path class="cls-1" d="M179.15,616.43c9.06-4,17.65-.32,24.82,3.83,13.12,7.59,22.32,18.65,26.3,34.29,2.72,10.74,2.47,21.06-1.16,30.58-4.7,12.32-12.33,22.9-24.6,30-13.26,7.65-26.87,7.95-40.59,4.13A51.67,51.67,0,0,1,131.44,693c-5.55-10.47-7.9-21.79-5.59-33.71,4.61-23.74,21.48-38.86,44.53-41.75,2.13-.26,4.23-.68,6.34-1C177.55,617.36,178.37,617.71,179.15,616.43Zm-14.43,54.44c-1.45-2-.84-3.83-.73-5.52.46-7,1.06-14,1.49-21,.11-1.74.2-4.38-1.54-4.72-2.46-.47-2,2.33-2.43,3.88-3.29,10.72-2.3,21.72-2.07,32.66.06,2.81,1.53,5.46,4.44,6.14,3.12.73,4.12-2.23,5.44-4.3a7.61,7.61,0,0,0,.77-2c2.86-10.08,4.22-20.42,5.18-30.81a5.63,5.63,0,0,0-2.21-5.52C170.22,650,168.29,660.48,164.72,670.87Zm18.55-27.2c-.08,1.88-.34,4.51,2.64,4.67,3.33.19,3.45-2.8,3.39-5s.19-5.4-3.06-5.33S183.22,641,183.27,643.67Zm-29.15-3c-.09-1.74.14-3.85-2.13-3.72-3.22.19-2.79,3.19-3.13,5.29-.26,1.58.06,3.73,2.26,3.33C153.58,645.15,154,642.77,154.12,640.7Z" transform="translate(-124.97 -232.04)"/><path class="cls-2" d="M778.73,572.43c-2.81-7.06-.89-14,1-20.75,3.91-13.75,13.14-23.79,24.17-32.37,1.67-.45,3.37-.81,4.51-2.29,9.08-4.29,18.57-4.92,28.56-4.93,11.85,0,21.31,4.9,29.73,11.76,9.16,7.45,14.32,17.91,15.8,29.72,2.2,17.64-3.59,32.55-16.79,44.36-2.21,2-2.55,4.57-4.05,6.73-4.16,6-11.21,6.65-17,9.24-11.7,5.26-23.53,5.3-36,.22A49,49,0,0,1,788,598.81c-4.34-5.59-8.71-12.38-8.09-20.49,5.67,7.92,13,10.31,22.56,7.89,11.45-2.9,18.85-10.3,23.41-20.44,4.75-10.57,3.29-21.72.77-32.7-.74-3.26-2.81-6.85-5.67-5.92s-2.38,5.39-1,8.06c3.58,6.66,3.37,13.65,1.81,20.5-3.53,15.46-10.31,25.2-26.93,25.83-5.5.2-9.3-2.16-12.39-6.2C781.44,574,781.29,571.73,778.73,572.43Zm22.52-16.64c-.9-2.17-2.09-5.15-3.39-8.07a1.59,1.59,0,0,0-2.18-1,2.77,2.77,0,0,0-1.71,2.51c-.31,3.45,1.37,6.22,3.08,9,.64,1,1.42,2.33,2.93,1.75S801.19,558,801.25,555.79ZM784,559.53c-.07,3.37,3.68,9,5.9,8.87,1.3-.1,1.75-1,1.85-2.2.19-2.5-4.36-9.64-6.1-9.49S784.11,558.31,784,559.53Z" transform="translate(-124.97 -232.04)"/><path class="cls-1" d="M580.08,614.38c17.9-1.28,30,8.42,39.35,21.93,13.2,19.09,12.17,39.31,2.26,59.44-7.39,15-20.56,23-36.14,26.92-8,2-16.16-.23-23.93-2.91a43.88,43.88,0,0,1-23.82-20c-5.64-9.84-8.78-20.73-7.31-32.87,2.17-18,9.78-32.36,24.44-43a25.88,25.88,0,0,1,14.9-5.41c2.52-.07,6,.3,7.49-3C578.74,616.37,579.27,615,580.08,614.38Zm11,60.94c-4.79-6.88-9.49-13.67-11.53-21.84-.42-1.71.11-4.81-2.75-4.17-2.39.53-1.7,3.21-1.23,5.15A60.62,60.62,0,0,0,592,683.21c2,2,4.4,6.19,7.2,4.35,3-1.94.35-5.9-.62-8.86-4.36-13.3-9.79-26.29-11.67-40.32a4.71,4.71,0,0,0-3.31-4.33C582.2,648.84,586.6,662,591.11,675.32ZM563.4,650.21a16.61,16.61,0,0,0,0,2.08c.52,2.18.35,4.74,3,5.76,1,.39,2.24.65,3-.25,1.71-2.08-.14-4-.54-6a7.26,7.26,0,0,0-.4-1.54c-.64-1.41-1-3.55-2.9-3.31C563.44,647.25,563.45,649.44,563.4,650.21Zm28.37-16.32c1.2,2.83.19,7,4.31,8.36,1.91.62,2.65-1.13,2.2-2.64-1-3.35-.78-7.68-4.37-9.38C592.16,629.4,592.06,632.2,591.77,633.89Z" transform="translate(-124.97 -232.04)"/><path class="cls-3" d="M580.08,614.38c-.81.64-1.34,2-2.76,1.07-1.17-32.06-1-64.13-1.16-96.21q-.3-66.9-1-133.79c-.13-13.26-.25-26.52-.73-39.78-.36-9.69.72-19.52.73-29.3,0-16.84.39-33.69-.16-50.5-.29-9.08-.59-18.1.18-27.14.13-1.47-.65-3.84,1.62-3.87,2,0,2,2.37,2,3.87.31,9.69.59,19.39.63,29.09.09,23.58-.47,47.19.22,70.76.58,19.95.1,39.9.47,59.85q.68,35.43,0,70.94c-.21,11.24.29,22.56.32,33.84.11,35.08.06,70.16,0,105.24C580.51,610.43,580.23,612.4,580.08,614.38Z" transform="translate(-124.97 -232.04)"/><path class="cls-4" d="M179.15,616.43c-.78,1.28-1.6.93-2.43.05,0-18.15-.69-36.33-.38-54.45.37-22.61.23-45.21.34-67.82.09-18.53-.1-37.08,0-55.62.18-25.36-.21-50.72-.3-76.08-.07-20.08.34-40.17-.18-60.24-.52-20.53.13-41.09-1.42-61.59a12.51,12.51,0,0,1,0-1.62c.15-2.7.64-5.25,4.15-5,3.15.2,3.46,2.51,3.38,5.07-.28,9.1-.29,18.21-.79,27.29-.76,13.87-.29,27.75-.47,41.62-.27,20.15-.87,40.3-.94,60.45-.17,41.71-.08,83.42-.09,125.13,0,33.16,0,66.31-.06,99.46C180,600.84,179.44,608.64,179.15,616.43Z" transform="translate(-124.97 -232.04)"/><path class="cls-3" d="M325.05,615.42l-2.58-.09c-1.14-15.48-.41-31-.64-46.48-.31-20.11-.76-40.21-.88-60.33-.18-30.62.22-61.24-.38-91.85-.2-10,.05-19.95-.5-29.94-.7-12.82.19-25.71.17-38.56,0-14.14-.33-28.27-.41-42.4-.11-19.47-.1-38.93-.19-58.4,0-2.87-.42-5.74-.37-8.61,0-1.82-.34-4.41,2.73-4.22,2.82.17,2,2.56,2,4.18,0,21.59-.15,43.18.12,64.77s.21,43,.47,64.56c.15,12.78,1.17,25.69-.33,38.58-.88,7.6.1,15.42.26,23.14.43,21.74-.05,43.51.26,65.24.42,30.08-.25,60.17.54,90.26C325.56,595.31,325.16,605.37,325.05,615.42Z" transform="translate(-124.97 -232.04)"/><path class="cls-3" d="M455.13,614.27a2.88,2.88,0,0,1-3.21,1q-.33-35.12-.64-70.22c-.17-20.2-.42-40.39-.45-60.59-.11-61.06,0-122.12-.28-183.18-.09-20.3.43-40.62-.76-60.91a13.61,13.61,0,0,1,.49-3.73c.17-.75.14-1.94,1.53-1.54.81.24,1.87.25,2,1.39a22.58,22.58,0,0,1,.24,3.18c-.11,19.82.14,39.65.09,59.46,0,18.17.31,36.33.2,54.5-.08,13.1-.72,26.21-.33,39.3,1.42,46.59.58,93.19.94,139.79C455.19,559.92,455.09,587.1,455.13,614.27Z" transform="translate(-124.97 -232.04)"/><path class="cls-3" d="M808.42,517c-1.14,1.48-2.84,1.84-4.51,2.29-5.24-11.15-10.51-22.3-15.71-33.48-8.13-17.48-17.1-34.55-25-52.13-7.36-16.28-16-32-23.89-48-5.84-11.85-11.32-23.88-17.11-35.77-7.76-15.93-15.75-31.75-23.48-47.69q-15.93-32.84-31.61-65.79c-.61-1.26-2.41-2.94-.76-4,2-1.28,3.13.74,3.94,2.4Q681.14,257,692,279.2c7.39,15.08,14.85,30.13,22.16,45.26,5.76,11.9,10.78,24.19,17.13,35.76,9.37,17.07,17.56,34.72,26.07,52.19,7.75,15.93,15.63,31.81,23.42,47.72q12.5,25.53,24.91,51.08C806.63,513.14,807.51,515.09,808.42,517Z" transform="translate(-124.97 -232.04)"/><path class="cls-3" d="M778.73,572.43c2.56-.7,2.71,1.55,3.75,2.91,3.09,4,6.89,6.4,12.39,6.2,16.62-.63,23.4-10.37,26.93-25.83,1.56-6.85,1.77-13.84-1.81-20.5-1.43-2.67-1.77-7.17,1-8.06s4.93,2.66,5.67,5.92c2.52,11,4,22.13-.77,32.7-4.56,10.14-12,17.54-23.41,20.44-9.55,2.42-16.89,0-22.56-7.89C779.59,576.33,777.66,574.67,778.73,572.43Z" transform="translate(-124.97 -232.04)"/><path class="cls-3" d="M898.54,526.42c-2.58.13-2.2-1.45-2-2.87.38-2.5,2.66-3.28,4.35-4.45q28.4-19.75,56.88-39.37a3,3,0,0,1,.89-.59c1.27-.29,2.44-2.64,3.65-.91s-.82,2.79-2.06,3.71c-2.73,2-5.53,4-8.28,6q-25.65,18.64-51.29,37.28A21.14,21.14,0,0,1,898.54,526.42Z" transform="translate(-124.97 -232.04)"/><path class="cls-3" d="M948.83,523.86c-4.75,6.13-11.42,9.2-17.09,13.39-9.87,7.3-20.39,13.74-30.55,20.66-1.5,1-2.88,2-4.13.33-1.08-1.47-.5-3,1.15-4.1q23.67-15.14,47.33-30.31C946.34,523.31,947.18,523.2,948.83,523.86Z" transform="translate(-124.97 -232.04)"/><path class="cls-3" d="M923.41,481.78c.18,5.07-3.67,6.29-6.42,8.29-9.28,6.74-18.79,13.18-27.76,20.35-1.3,1-3,4.68-5.4.91-1.88-3-.72-3.89,2.34-5.71C898.74,498.15,910.85,489.91,923.41,481.78Z" transform="translate(-124.97 -232.04)"/><path class="cls-3" d="M288.12,639.85c2.52,4.18,1.78,8.83,3.1,13.84,3-2.26,2.82-5.24,3.32-7.8s.85-5.26,3.11-7.22a5.65,5.65,0,0,1,1.7,5.94c-1,4.56-2.34,9-3.69,13.53a4.27,4.27,0,0,1-5,3.21c-2.2-.3-3.11-1.8-3.65-4A29,29,0,0,1,288.12,639.85Z" transform="translate(-124.97 -232.04)"/><path class="cls-3" d="M307.2,639.85c.26,3.86.43,7.73.83,11.58.12,1.14.3,2.8,1.74,3s1.91-1.44,2.32-2.53c1.5-4,2.84-8.15,4.3-12.21a2.66,2.66,0,0,1,2.24-2c1.69,4.88-2,18.34-5.75,21.16-3,2.26-7.18.12-8.19-4.63C303.64,649.23,304,644.28,307.2,639.85Z" transform="translate(-124.97 -232.04)"/><path class="cls-3" d="M428.43,645c3.85,6.62,1.38,14.49,5.34,21.87,2.25-7.71,4-14.68,3.91-22,0-1.46-.81-4,1.26-4.08,2.54-.07,1.63,2.62,1.78,4.24.83,9.53-3,18.39-4.08,27.63a3,3,0,0,1-5.61.61C427.2,664.12,427.05,654.61,428.43,645Z" transform="translate(-124.97 -232.04)"/><path class="cls-3" d="M447.46,646c-.18-3.31,1.13-5.47,3.81-5.36,3.14.14,3.59,3.2,3.8,5.67s-1.6,3.52-3.78,3.68C448.07,650.26,447.39,648.13,447.46,646Z" transform="translate(-124.97 -232.04)"/><path class="cls-4" d="M414.19,648.44c.4-2.45.51-5.15,3.21-5.17s3.19,2.45,3.17,4.73c0,2.56-.88,4.82-3.85,4.7S415.05,649.69,414.19,648.44Z" transform="translate(-124.97 -232.04)"/><path class="cls-4" d="M164.72,670.87c3.57-10.39,5.5-20.88,8.34-31.18a5.63,5.63,0,0,1,2.21,5.52c-1,10.39-2.32,20.73-5.18,30.81a7.61,7.61,0,0,1-.77,2c-1.32,2.07-2.32,5-5.44,4.3-2.91-.68-4.38-3.33-4.44-6.14-.23-10.94-1.22-21.94,2.07-32.66.47-1.55,0-4.35,2.43-3.88,1.74.34,1.65,3,1.54,4.72-.43,7-1,14-1.49,21C163.88,667,163.27,668.83,164.72,670.87Z" transform="translate(-124.97 -232.04)"/><path class="cls-3" d="M183.27,643.67c-.05-2.7-.14-5.62,3-5.69s3,3.18,3.06,5.33-.06,5.22-3.39,5C182.93,648.18,183.19,645.55,183.27,643.67Z" transform="translate(-124.97 -232.04)"/><path class="cls-3" d="M154.12,640.7c-.13,2.07-.54,4.45-3,4.9-2.2.4-2.52-1.75-2.26-3.33.34-2.1-.09-5.1,3.13-5.29C154.26,636.85,154,639,154.12,640.7Z" transform="translate(-124.97 -232.04)"/><path class="cls-3" d="M801.25,555.79c-.06,2.17.18,3.64-1.27,4.19s-2.29-.73-2.93-1.75c-1.71-2.74-3.39-5.51-3.08-9a2.77,2.77,0,0,1,1.71-2.51,1.59,1.59,0,0,1,2.18,1C799.16,550.64,800.35,553.62,801.25,555.79Z" transform="translate(-124.97 -232.04)"/><path class="cls-3" d="M784,559.53c.08-1.22-.2-2.66,1.66-2.82s6.29,7,6.1,9.49c-.1,1.21-.55,2.1-1.85,2.2C787.72,568.56,784,562.9,784,559.53Z" transform="translate(-124.97 -232.04)"/><path class="cls-4" d="M591.11,675.32c-4.51-13.3-8.91-26.48-7.55-41.27a4.71,4.71,0,0,1,3.31,4.33c1.88,14,7.31,27,11.67,40.32,1,3,3.57,6.92.62,8.86-2.8,1.84-5.21-2.34-7.2-4.35a60.62,60.62,0,0,1-16.36-28.75c-.47-1.94-1.16-4.62,1.23-5.15,2.86-.64,2.33,2.46,2.75,4.17C581.62,661.65,586.32,668.44,591.11,675.32Z" transform="translate(-124.97 -232.04)"/><path class="cls-3" d="M563.4,650.21c.05-.77,0-3,2.19-3.24,1.88-.24,2.26,1.9,2.9,3.31a7.26,7.26,0,0,1,.4,1.54c.4,2,2.25,3.9.54,6-.74.9-2,.64-3,.25-2.69-1-2.52-3.58-3-5.76A16.61,16.61,0,0,1,563.4,650.21Z" transform="translate(-124.97 -232.04)"/><path class="cls-3" d="M591.77,633.89c.29-1.69.39-4.49,2.14-3.66,3.59,1.7,3.36,6,4.37,9.38.45,1.51-.29,3.26-2.2,2.64C592,640.91,593,636.72,591.77,633.89Z" transform="translate(-124.97 -232.04)"/></svg>